<svg xmlns="http://www.w3.org/2000/svg" viewBox="0 0 134.84 49.19"><defs><style>.cls-1{fill:#075b5b;}.cls-2{fill:none;stroke:#065b5b;stroke-miterlimit:10;}</style></defs><g id="Calque_2" data-name="Calque 2"><g id="Calque_1-2" data-name="Calque 1"><path class="cls-1" d="M82.88,27.46c0,6.4-4.37,11.57-11.57,11.57S59.78,33.86,59.78,27.46,64.2,15.89,71.26,15.89A11.22,11.22,0,0,1,82.88,27.46Zm-17.6,0c0,3.38,2,6.53,6,6.53s6-3.15,6-6.53-2.34-6.57-6-6.57C67.35,20.89,65.28,24.13,65.28,27.46Z"/><path class="cls-1" d="M104.27,16.34h5.27v22.2h-5.18l-.27-3.24c-1.26,2.61-4.73,3.87-7.21,3.91-6.57,0-11.43-4-11.43-11.79S90.54,15.75,97,15.8c3,0,5.81,1.4,7.07,3.6ZM90.94,27.42a6.36,6.36,0,0,0,6.58,6.75c8.64,0,8.64-13.46,0-13.46A6.32,6.32,0,0,0,90.94,27.42Z"/><path class="cls-1" d="M119.53,7.06v18.2L127,16.34h6.57v.32l-9.05,10.13,10.31,11.34v.41h-6.62l-8.69-10v10H114V7.06Z"/><path class="cls-2" d="M28.45,24.78a3.49,3.49,0,0,0,0,1.67c1.52,5.84-9.4,8-9.57,1.69.14-1.79,1.39-2.24.89-3.7C19.56,19.23,29.78,19,28.45,24.78Z"/><path class="cls-2" d="M35,28.47c-.44,9.06-8.34,11-16,9.52l-.42-.1c-7.24-2.15-7.5-6.47-4.11-13.82a3.52,3.52,0,0,0,.27-.89c.36-2.28.88-7.53,7.24-9.07,6.24-2.67,14.88,2.33,13.19,9.47C34.4,25.73,35.05,27.25,35,28.47Z"/><path class="cls-2" d="M12.63,21.45C12.39,12.59,24,8,32.06,10.19a3.13,3.13,0,0,1,.78.32c8.9,4.88,7,16.47,5.66,23.17-1.44,5-6.83,6-10.8,6.69a2.84,2.84,0,0,0-.65.18,12.84,12.84,0,0,1-8.72.53c-6.86-1.75-9.25-6.48-9.19-10.32C9,27.89,12,25.35,12.6,22.1A3.54,3.54,0,0,0,12.63,21.45Z"/><path class="cls-2" d="M9.75,19.85C12.22,9.37,19.19,5.64,27.84,5.19c3,0,8.25-1.15,12.23,5.09,2,2.68,4,5.64,4.15,9.51a4,4,0,0,0,.36,1.49c2.11,4.55.89,10.78-1.27,15.76C41,42.86,35,43.26,30.08,43.39a3.31,3.31,0,0,0-1.54.41C22.83,47.05,4.73,45,4.54,32.59,4.83,27.23,8.94,24.61,9.75,19.85Z"/><path class="cls-2" d="M47.89,15.67c1.07,1.42,3.36,3.63,3.75,8.15,0,.42,0,.84,0,1.25a13.2,13.2,0,0,1-1.94,6.58,3.22,3.22,0,0,0-.38,1.13c-1.39,8.92-6,17.09-17.78,14.57a4.09,4.09,0,0,0-.92-.08c-9,.52-16.72,3.13-20.63-.4a3.3,3.3,0,0,0-.64-.47C6,44.45.57,42.06.5,34c.12-5.43,3.28-8.34,5.56-11.71a3.26,3.26,0,0,0,.54-1.63C7.54,7.39,10,5.36,19.52,3.2A3.36,3.36,0,0,0,20,3.06,28.87,28.87,0,0,1,28.43,1.6a3.41,3.41,0,0,0,.79-.25A11.67,11.67,0,0,1,36.68,1c5.83,1.84,7.09,7.14,7.79,8.78A37.56,37.56,0,0,0,47.89,15.67Z"/></g></g></svg>